<svg xmlns="http://www.w3.org/2000/svg" width="208" height="220" viewBox="0 0 208 220">
  <path d="M223.921798,165.958771 L223.926198,165.958771 C222.707398,164.401171 221.611798,161.879971 220.995798,158.936372 C219.900198,153.700373 220.014598,149.907573 223.072598,149.414774 C226.130597,148.921974 227.608997,152.089973 228.704597,157.325972 C229.439397,160.845972 229.298597,164.079971 228.480197,165.958771 C227.067797,165.760771 225.527797,165.765171 223.921798,165.958771 Z M197.658202,170.10357 L197.658202,170.10797 C195.471403,169.14877 192.629003,168.07517 189.197004,168.28637 C184.335004,168.58557 180.115405,170.71517 178.909805,170.57877 C178.395005,170.50397 178.179405,170.28397 178.113405,169.99357 C177.915406,169.09157 179.301405,167.60437 180.766605,166.530771 C185.201804,163.340771 190.952603,162.649971 195.775002,164.726771 C198.129002,165.734371 200.355402,167.52077 201.433401,169.28517 C201.957001,170.13877 202.058201,170.79877 201.719401,171.14637 C201.191402,171.70077 199.849402,171.06277 197.658202,170.10357 Z M193.253803,172.61597 L193.258203,172.62037 C197.183002,172.15397 200.060602,173.984369 200.729402,175.066769 C201.015402,175.533169 200.901002,175.836769 200.808602,175.977569 C200.496202,176.470369 199.818602,176.382369 198.384202,176.219569 C195.792602,175.924769 193.174603,175.753169 189.205804,177.174369 C189.205804,177.174369 187.762604,177.750769 187.120204,177.750769 L186.649404,177.570369 L186.429404,177.051169 C186.425004,176.465969 186.957404,175.634369 187.819804,174.881969 C188.831804,174.006369 190.402603,173.06477 193.253803,172.61597 Z M215.055799,181.838368 C213.119799,180.887968 212.1122,178.973968 212.8074,177.561569 C213.502599,176.149169 215.632199,175.775169 217.568199,176.725569 C219.504198,177.675969 220.511798,179.589968 219.816598,181.002368 C219.121398,182.414768 216.991799,182.788768 215.055799,181.838368 Z M227.498997,170.96597 C229.069797,170.99677 230.314997,172.76557 230.279797,174.921569 C230.244597,177.077569 228.937797,178.802369 227.366997,178.775969 C225.796197,178.749569 224.550998,176.980769 224.586198,174.824769 C224.621398,172.66437 225.928197,170.93957 227.498997,170.96597 Z M121.868215,209.853163 L121.868215,209.844363 C122.009015,210.007163 122.233415,210.376763 121.969415,210.988363 C121.525015,212.022363 119.765015,213.439163 117.248216,213.342363 C114.661016,213.144363 111.779017,211.261163 111.387417,206.575164 C111.193817,204.260764 112.069417,201.444765 112.606217,199.970765 C113.644616,197.119565 112.707417,194.136366 110.269817,192.539166 C108.839817,191.601966 107.128218,191.285166 105.456218,191.641566 C103.810618,191.993566 102.411418,192.961566 101.513819,194.365166 C100.770219,195.531166 100.317019,196.983165 100.070619,197.761965 L99.9122188,198.241565 C99.3622189,199.715565 98.4910191,200.146765 97.8970192,200.067565 C97.6198192,200.027965 97.2326193,199.843165 96.9862193,199.165565 C96.3130194,197.317565 96.8542193,192.094766 100.334619,188.257967 C102.539018,185.824767 105.997418,184.579568 109.354617,185.006367 C112.852617,185.450767 115.765416,187.567167 117.547416,190.963966 C119.914615,195.473966 117.807016,200.212765 116.544216,203.041964 L116.174616,203.882364 C115.387016,205.761164 115.343016,207.402364 116.060216,208.502363 C116.610216,209.347163 117.591416,209.839963 118.748616,209.861963 C119.285416,209.870763 119.778215,209.756363 120.213815,209.655163 C120.834215,209.514363 121.476615,209.364763 121.868215,209.853163 Z M267.18259,201.281965 L267.18699,201.277565 C270.34179,201.277565 275.291789,204.907564 275.291789,213.667963 C275.291789,222.384361 271.67499,232.257959 270.82139,234.449159 C257.792992,265.671554 226.698197,283.051551 189.659003,281.951551 C155.127809,280.926351 125.678614,262.705954 112.791017,233.001559 C104.998618,233.010359 96.9642193,229.58276 90.8570204,224.170761 C84.4198215,218.468362 80.4510221,211.089563 79.6766223,203.393964 C79.0738224,197.401165 79.8086222,191.826366 81.6874219,186.964367 L74.4494232,180.830768 C41.3262288,152.864373 144.924211,37.7163926 178.056205,66.6155877 C178.223405,66.7607876 189.329004,77.6551858 189.355404,77.6815858 L195.511003,75.0679862 C224.572998,63.0339883 248.152594,68.8463873 248.183394,88.047984 C248.200994,98.0315823 241.838595,109.67398 231.643796,120.238379 C235.339796,123.665978 238.296595,129.020777 239.994995,135.145576 C241.420595,139.673175 241.675795,144.262374 241.803395,147.205974 C241.979395,151.275973 242.172995,160.757972 242.194995,160.925172 L246.286994,162.060371 C254.088193,164.247171 259.636592,167.164371 262.351391,170.01557 C265.066191,172.86237 266.41259,175.621169 266.90099,178.855169 C267.35859,181.464368 267.29699,186.071167 263.856191,191.223566 L265.602991,195.909566 C266.46099,198.659565 267.08579,200.943165 267.18259,201.281965 Z M115.637816,224.659161 C127.742214,222.595561 130.910214,209.448363 128.917014,196.538765 C126.664214,181.961568 116.803816,176.822369 110.111417,176.457169 C108.250217,176.360369 106.521018,176.527569 105.095418,176.813569 C93.14942,179.220368 86.4042211,189.384367 87.7330209,202.584364 C88.9342207,214.530362 101.016619,224.601961 112.205817,224.901161 C113.363017,224.927561 114.511416,224.852761 115.637816,224.659161 Z M103.146218,168.91557 C112.610617,143.509975 128.415414,120.101979 149.33301,103.993581 C164.856208,91.0443835 181.598205,81.7559851 181.598205,81.7559851 C181.598205,81.7559851 172.582606,71.3015869 169.859007,70.531587 C153.10821,66.0083878 116.931416,90.9563835 93.8314199,123.921178 C84.4858214,137.257576 71.1054237,160.876772 77.5030226,173.02517 C78.2906225,174.529969 82.7566217,178.397569 85.1502213,180.395168 C89.1586207,174.573969 95.7102195,170.36317 103.146218,168.91557 Z M220.573398,219.722362 L220.573398,219.731162 C220.573398,219.731162 207.113801,225.98356 185.734204,219.370362 C186.328204,224.386361 191.212203,226.63476 193.548603,227.54116 C196.483402,228.68516 199.704202,229.21316 199.704202,229.21316 C226.196597,233.771559 250.964193,218.622362 256.538992,214.807562 C256.956992,214.521562 257.234192,214.798762 256.899792,215.304762 L256.354192,216.083562 C249.529793,224.887961 231.181796,235.082759 207.3118,235.078359 C196.901402,235.073959 186.495404,231.40876 182.676205,225.772361 C176.749406,217.029562 182.381405,204.265164 192.259403,205.593964 L196.584602,206.082364 C208.931,207.455164 226.799397,205.725964 241.530595,198.888365 C255.007792,192.631566 260.098591,185.749967 259.332992,180.175168 C259.126192,178.670369 258.452992,177.099569 257.009792,175.616769 C254.585392,173.249569 250.744193,171.40157 244.267394,169.58437 C242.128995,168.98157 240.676995,168.59877 239.110595,168.08397 C236.329796,167.164371 234.956996,166.429571 234.644596,161.197972 C234.508196,158.914372 234.112196,150.945973 233.966996,147.650374 C233.711796,141.881975 233.016596,133.992776 228.123797,130.736777 C226.847797,129.887577 225.430997,129.478377 223.939398,129.399177 C222.482998,129.328777 221.752598,129.592777 221.457798,129.641177 C218.663799,130.116377 217.013799,131.603577 214.954599,133.319576 C208.8518,138.405975 203.699401,139.237575 197.966202,138.991175 C194.538603,138.845975 190.908603,138.313575 186.750604,138.067175 L184.317404,137.926375 C174.716606,137.433576 164.420608,145.723174 162.709008,157.497572 C160.324209,173.887569 172.191006,182.357568 175.618606,187.325167 C176.054206,187.919167 176.560206,188.755167 176.560206,189.551567 C176.560206,190.501967 175.944206,191.254366 175.341406,191.896766 L175.341406,191.901166 C165.547008,201.972765 162.414208,217.971162 166.105808,231.30756 C166.567807,232.970759 167.153007,234.563559 167.843807,236.085959 C176.503006,256.321555 203.369401,265.746354 229.610997,257.175155 C233.126596,256.026755 236.457396,254.605556 239.581395,252.964356 C245.468594,250.082356 250.612193,246.117957 254.849392,241.555158 C261.810191,234.277559 265.95059,226.37076 267.56099,216.624762 C268.34859,211.406363 267.19139,209.391163 265.616191,208.418763 C263.948591,207.393564 261.950991,207.749964 261.950991,207.749964 C261.950991,207.749964 261.040191,201.515165 258.461792,195.847966 C250.810193,201.884765 240.962995,206.126364 233.465396,208.277963 C224.814997,210.759563 213.106599,212.669163 200.043002,211.890363 C192.796203,211.305163 188.000204,209.188763 186.196204,215.049562 C202.753401,221.112761 220.278598,218.516762 220.278598,218.516762 C220.617398,218.481562 220.920998,218.727962 220.956198,219.066762 C220.982598,219.339562 220.815398,219.621162 220.573398,219.722362 Z M145.808611,123.780378 L145.808611,123.775978 C145.518211,124.114778 145.949411,124.585578 146.305811,124.325978 C153.39861,119.164779 163.122608,114.36878 175.860606,111.26238 C190.129803,107.781981 203.866601,109.24278 212.2574,111.16558 C212.6798,111.26238 212.9438,110.53638 212.5698,110.32518 C207.025801,107.214381 198.516202,105.102381 192.479403,105.058381 C192.184603,105.053981 192.017403,104.710781 192.193403,104.473181 C193.236203,103.069581 194.666203,101.683582 195.973002,100.680382 C196.263402,100.451582 196.087402,99.980782 195.717802,100.002782 C187.120204,100.530782 177.317006,104.644781 171.685007,108.485981 C171.407807,108.67518 171.047007,108.428781 171.117407,108.098781 C171.557407,105.986781 172.943406,103.197181 173.660606,101.894782 C173.832206,101.586782 173.497806,101.247982 173.185406,101.406382 C164.130208,106.039581 154.01901,114.28958 145.808611,123.780378 Z" transform="translate(-68 -62)"/>
</svg>
